<?xml version="1.0" encoding="UTF-8"?>
<svg width="112" height="112" enable-background="new 0 0 512.047 512.047" version="1.1" viewBox="0 0 512.05 512.05" xml:space="preserve" xmlns="http://www.w3.org/2000/svg">
	<path d="m478.26 104.8-16-32c-2.711-5.38-8.215-8.782-14.24-8.8h-112v-32c0-17.673-14.327-32-32-32h-96c-17.673 0-32 14.327-32 32v32h-112c-6.025 0.018-11.529 3.419-14.24 8.8l-16 32c-3.977 7.891-0.803 17.512 7.088 21.489 2.219 1.118 4.667 1.704 7.152 1.711h32v352c-0.484 8.207 2.208 16.285 7.52 22.56 6.436 6.501 15.346 9.937 24.48 9.44h288c17.673 0 32-14.327 32-32v-352h32c8.837-0.027 15.978-7.212 15.952-16.048-8e-3 -2.485-0.594-4.933-1.712-7.152zm-270.24-72.8h96v32h-96v-32zm192 448h-288v-352h288v352z"/>
	<path d="m272.02 416v-256c-17.673 0-32 14.327-32 32l0.96 224h-0.96v32c17.674 0 32-14.327 32-32z"/>
	<path d="m352.02 416v-256c-17.673 0-32 14.327-32 32l0.96 224h-0.96v32c17.674 0 32-14.327 32-32z"/>
	<path d="m192.02 416v-256c-17.673 0-32 14.327-32 32l0.96 224h-0.96v32c17.673 0 32-14.327 32-32z"/>
</svg>