<?xml version="1.0" encoding="UTF-8"?>
<svg width="112" height="112" enable-background="new 0 0 512 512" version="1.1" viewBox="0 0 512 512" xml:space="preserve" xmlns="http://www.w3.org/2000/svg">
	<path d="m256 0c-141.38 0-256 114.62-256 256s114.62 256 256 256 256-114.62 256-256-114.62-256-256-256zm0 480c-123.71 0-224-100.29-224-224s100.29-224 224-224 224 100.29 224 224-100.29 224-224 224z"/>
	<path d="M292.64,116.8l-128,128c-6.204,6.241-6.204,16.319,0,22.56l128,128l22.56-22.72L198.56,256L315.2,139.36L292.64,116.8z"/>
		
</svg>
