<?xml version="1.0" encoding="UTF-8"?>
<svg width="112" height="112" enable-background="new 0 0 512 512" version="1.1" viewBox="0 0 512 512" xml:space="preserve" xmlns="http://www.w3.org/2000/svg">
	<path d="m400 0h-288c-61.856 0-112 50.144-112 112v288c0 61.856 50.144 112 112 112h288c61.856 0 112-50.144 112-112v-288c0-61.856-50.144-112-112-112zm80 400c0 44.183-35.817 80-80 80h-288c-44.183 0-80-35.817-80-80v-288c0-44.183 35.817-80 80-80h288c44.183 0 80 35.817 80 80v288z"/>
	<path d="m219.36 155.36-22.72-22.72-112 112c-6.204 6.241-6.204 16.319 0 22.56l112 112 22.56-22.56-84.64-84.64h297.44v-32h-297.44l84.8-84.64z"/>
		
</svg>
