<?xml version="1.0" encoding="UTF-8"?>
<svg width="112" height="112" enable-background="new 0 0 511.99 511.99" version="1.1" viewBox="0 0 511.99 511.99" xml:space="preserve" xmlns="http://www.w3.org/2000/svg">
	<path d="m506 195.51-240-192c-5.845-4.68-14.155-4.68-20 0l-240 192c-6.893 5.53-7.998 15.6-2.468 22.492 3.017 3.76 7.568 5.96 12.388 5.988h32v272c0 8.837 7.163 16 16 16h144c8.837 0 16-7.163 16-16v-144h64v144c0 8.837 7.163 16 16 16h144c8.837 0 16-7.163 16-16v-272h32c8.836 0.037 16.03-7.096 16.068-15.932 0.021-4.877-2.184-9.496-5.988-12.548zm-122.08-3.52v32h48v256h-112v-144c0-8.837-7.163-16-16-16h-96c-8.837 0-16 7.163-16 16v144h-112v-256h48v-32h-66.4l194.4-155.52 194.4 155.52h-66.4z"/>
	<path d="m191.92 191.99v16c0 8.837 7.163 16 16 16h96c8.837 0 16-7.163 16-16v-16c0-8.837-7.163-16-16-16h-96c-8.836 0-16 7.163-16 16z"/>
</svg>
