<svg xmlns="http://www.w3.org/2000/svg" version="1.0" width="266.667" height="266.667" viewBox="0 0 200 200"><path d="M83.3 6.4c-36.5 7-65.6 34-75.5 70.1-3.1 11.5-3.1 35.5 0 46.8 9.3 34.1 35 59.6 69.2 68.9 12.2 3.3 33.8 3.3 46 0 34.4-9.3 59.9-34.8 69.2-69.2 3.3-12.2 3.3-33.8 0-46-9.3-34.2-35.3-60.3-68.9-69.1-10.1-2.7-30-3.4-40-1.5zm40 12c14.7 4.4 25.9 11 36.6 21.7 10.7 10.6 17.2 21.7 21.7 36.6 2.4 7.7 2.7 10.6 2.8 22.8 0 11.7-.3 15.3-2.2 22-8.6 29.9-30.8 52.1-60.7 60.7-6.7 1.9-10.3 2.2-22 2.2-12.2-.1-15.1-.4-22.8-2.8-14.9-4.5-26-11-36.6-21.7-10.6-10.6-17.2-21.7-21.8-36.6-2.3-7.8-2.6-10.4-2.6-23.3s.3-15.5 2.6-23.3c4.6-14.9 11.2-26 21.8-36.6C52.8 27.3 68.3 19.3 86.7 16c8.8-1.6 26.9-.4 36.6 2.4z"/><path d="M90.1 46.7c-2.6.9-6.5 3.6-9.1 6.2C63.9 70 75.9 99.1 99.9 99c10.4-.1 18.5-4.7 23.9-13.9 2.3-4 2.7-5.7 2.7-12.6 0-9.4-1.8-13.8-8-20.1-7-6.9-18.4-9.2-28.4-5.7zM62.1 106.5c-12.3 3.4-14.4 7.2-14.9 25.7l-.4 13.8H153v-12.3c0-14.1-.9-18.3-4.7-22-6.4-6-7.5-6.2-45.8-6.4-28.3-.2-36 0-40.4 1.2z"/></svg>
