<?xml version="1.0" encoding="UTF-8"?>
<!DOCTYPE svg  PUBLIC '-//W3C//DTD SVG 20010904//EN'  'http://www.w3.org/TR/2001/REC-SVG-20010904/DTD/svg10.dtd'>
<svg width="840pt" height="880pt" version="1.0" viewBox="0 0 360 360" xmlns="http://www.w3.org/2000/svg">
<metadata>Created by potrace 1.16, written by Peter Selinger 2001-2019</metadata>
<g transform="translate(0 360) scale(.1 -.1)">
<path d="m1642 3150c-580-73-1047-498-1174-1070-33-152-33-418 0-570 119-535 525-936 1065-1052 133-28 387-31 519-5 493 98 892 450 1047 924 85 259 83 590-4 848-133 396-446 716-838 854-182 64-436 93-615 71zm396-186c430-88 786-414 907-829 40-138 48-214 42-390-4-131-10-177-32-255-58-210-158-383-310-536-175-176-395-292-635-335-108-19-336-17-438 4-462 98-806 425-930 886-23 87-25 113-25 286 0 174 2 198 26 289 79 294 260 547 505 708 167 108 316 161 547 192 58 8 266-4 343-20z"/>
<path d="m1315 2483c-43-2-85-9-92-15-10-8-13-142-13-673 0-604 1-664 17-676 12-10 61-15 191-17 97-2 186-1 198 2 57 15 54-19 54 690 0 651 0 653-21 672-18 16-38 19-138 20-64 0-152-1-196-3z"/>
<path d="m1974 2481c-12-5-25-14-28-19-3-6-6-307-6-669l-1-658 22-17c18-16 45-18 206-18 182 0 184 0 208 25l25 24v644c0 599-1 646-17 666-17 19-31 21-203 26-105 3-194 1-206-4z"/>
</g>
</svg>

