<?xml version="1.0" encoding="UTF-8"?>
<!DOCTYPE svg  PUBLIC '-//W3C//DTD SVG 20010904//EN'  'http://www.w3.org/TR/2001/REC-SVG-20010904/DTD/svg10.dtd'>
<svg width="840pt" height="881pt" version="1.0" viewBox="0 0 840 881" xmlns="http://www.w3.org/2000/svg">
<metadata>Created by potrace 1.16, written by Peter Selinger 2001-2019</metadata>
<g transform="translate(0 881) scale(.1 -.1)">
<path d="m3855 8390c-989-88-1974-576-2616-1296-934-1047-1263-2456-885-3790 139-492 397-993 716-1394 93-117 311-348 447-473 504-462 1204-813 1896-952 284-56 425-69 782-70 344 0 413 5 685 51 1114 187 2115 858 2712 1818 323 519 525 1112 590 1726 17 163 17 618 0 780-41 382-138 785-263 1086-111 269-302 623-452 836-222 317-546 648-872 893-556 417-1186 669-1925 770-136 19-661 28-815 15zm550-350c673-41 1301-254 1845-627 248-171 570-468 762-703 379-465 621-972 738-1544 55-269 73-453 73-746 0-342-26-570-98-865-159-648-479-1209-965-1695-603-604-1338-955-2185-1045-180-19-528-19-726 0-705 67-1320 314-1899 761-212 164-529 495-707 739-660 906-846 2145-487 3248 173 531 445 973 853 1391 419 427 878 716 1436 901 304 102 637 167 939 184 206 12 234 12 421 1z"/>
<path d="m3301 5982-25-19-7-294c-9-361-9-1794-1-2360 6-330 10-419 21-432 20-25 94-22 150 6 97 49 832 472 1731 995 591 344 771 451 794 472 22 21 32 94 17 132-8 20-61 57-228 156-496 294-1874 1093-2188 1268-172 96-222 111-264 76z"/>
</g>
</svg>
