<svg version="1.0" xmlns="http://www.w3.org/2000/svg" width="1306.667" height="1093.333" viewBox="0 0 980 820"><path d="M106.5 1.1c-20.7 2.5-42.9 11.7-60.1 25C26.6 41.4 10.7 65.8 3.7 91.8L.5 103.5v613l3.2 11.7C9.8 751 20 768.4 37 785c19.7 19.5 43.6 30.9 70.6 34 7.2.8 97 1 323.9.8 293-.3 314.5-.5 321-2.1 26.3-6.4 44.2-16.2 61.6-33.6 16-16 26.3-33.8 32.2-55.9l3.2-11.7.3-97.7.3-97.8-4.5.6c-2.5.4-16.1 2.1-30.3 3.8l-25.8 3.1-.5 91.5c-.4 72.9-.8 92.3-1.9 95.5-3.3 9.9-8.4 18.1-16 25.5-8.7 8.7-16.5 13.2-27.7 16-7.6 2-12.3 2-318.4 2-306.1 0-310.8 0-318.4-2-11.1-2.8-18.9-7.4-27.7-16-6.1-6-8.5-9.2-11.7-16-2.2-4.7-4.5-10.9-5.1-13.8-1.6-7.5-1.6-594.9 0-602.4.6-2.9 2.9-9.1 5.1-13.8 7.7-16 23.5-28.6 41-32.5 6.6-1.4 36.8-1.5 320.3-1.3l313 .3 6.7 2.6c19.9 7.7 34.2 23.3 39.2 42.6 1.2 4.4 1.6 10.8 1.6 22.7 0 15.1.2 16.6 1.8 16.6 2 0 49.8-5.7 55.6-6.6l3.9-.6-.6-17.7c-.4-10.1-1.3-20.5-2.1-24.4-5.7-24.7-17.6-45.8-35.4-62.9C795.7 18 777.4 8.3 753.5 2.7l-9-2.2L429 .4c-173.5-.1-318.6.2-322.5.7z"/><path d="M152.5 185.4c-6.3 2.9-13.8 11.1-15.9 17.3-3.9 11.4-1.2 22.8 7.3 31.4 9.9 9.9-21.5 8.9 287.1 8.9s277.2 1 287.1-8.9c8.5-8.6 11.2-20 7.3-31.4-2.1-6.2-9.6-14.4-15.9-17.3l-5-2.4h-547l-5 2.4zM869.1 185.5c-4.3 2-10.3 7.4-28.5 25.5l-23.1 22.9 55.5 55.6 55.5 55.5 22.8-22.8c15.6-15.5 23.6-24.2 25.4-27.6 3.4-6.6 4-13.9 1.8-20.7-1.6-5-4.4-8.1-41.9-45.8-44.2-44.4-45-45.1-56.1-45.1-4.3 0-7.5.7-11.4 2.5zM660.2 390.3L529 521.5V632h113.5l131-131 131-131-55.5-55.5C818.5 284 793.1 259 792.5 259c-.6 0-60.1 59.1-132.3 131.3zm139-80.2c3 1.6 5 7.2 3.7 10.6-1.3 3.6-140.3 142.8-144.6 144.8-2.8 1.4-3.6 1.4-6.7.1-4-1.7-5.6-4.2-5.6-8.8 0-3 5.7-9 72.3-75.5 66.5-66.6 72.5-72.3 75.5-72.3 1.8 0 4.2.5 5.4 1.1zM668.6 554.9c-22.6 22.6-18.1 20.3-41.5 21.7l-11.4.7.7-9.9c.3-5.4.9-13.3 1.2-17.5l.7-7.5-17.2.4c-14.6.4-17.1.2-17.1-1 0-.8.9-7.5 2-14.9l2.1-13.4 19.7-19.8 19.7-19.7 30.5 30.5 30.5 30.5-19.9 19.9zM157 365.3c-9.7 2.7-18.5 11.5-21.1 21.2-.6 2.2-.9 6.9-.7 10.5.8 11 6.8 19.9 16.6 24.7l5.7 2.8 200.5.3c226.1.3 206.6.9 216.1-7.6 7.4-6.6 10.3-12.9 10.3-22.2.1-12.7-6.4-22.9-17.9-28.2l-5-2.3-200-.2c-154.8-.1-201 .1-204.5 1zM159.3 547c-14.2 2.9-24.3 15.3-24.3 29.9 0 11.5 6.1 21.5 16.4 26.9l5.1 2.7h205l5.1-2.7c11.2-5.9 17-16.4 16.2-29.2-.8-11.6-6.1-19.7-16.6-24.8l-6.7-3.3-98-.2c-53.9 0-99.9.3-102.2.7z"/></svg>
