<?xml version="1.0" encoding="UTF-8"?>
<!DOCTYPE svg  PUBLIC '-//W3C//DTD SVG 20010904//EN'  'http://www.w3.org/TR/2001/REC-SVG-20010904/DTD/svg10.dtd'>
<svg width="256pt" height="256pt" version="1.0" viewBox="0 0 256 256" xmlns="http://www.w3.org/2000/svg">
<metadata>Created by potrace 1.16, written by Peter Selinger 2001-2019</metadata>
<g transform="translate(0 256) scale(.1 -.1)">
<path d="m1086 2530c-536-84-958-503-1052-1044-24-134-15-377 19-507 64-246 181-446 360-616 172-162 377-269 622-324 81-19 409-19 490 0 262 59 462 167 645 351 184 183 292 382 351 645 10 40 14 124 13 255-1 176-3 204-26 291-127 471-460 804-927 926-80 21-124 26-266 28-93 2-197 0-229-5zm464-193c388-102 687-405 791-802 20-77 24-114 24-255s-4-178-24-255c-130-496-560-835-1061-835s-931 338-1061 835c-33 127-34 378-2 506 108 426 444 742 877 825 112 21 338 12 456-19z"/>
<path d="m820 1280v-470h460 460v470 470h-460-460v-470z"/>
</g>
</svg>
