<?xml version="1.0" encoding="UTF-8"?>
<svg style="" version="1.0" viewBox="0 0 768 768" xmlns="http://www.w3.org/2000/svg">
<rect width="100%" height="100%" fill="none"/>
<g class="currentLayer" style="">
<g class="selected" transform="translate(0 768) scale(.1 -.1)" fill="#090">
<path d="m3600 7534c-507-44-909-148-1324-342-761-356-1370-949-1746-1702-275-550-404-1132-387-1750 26-913 366-1742 995-2427 60-65 125-131 143-147 19-16 70-62 114-101 390-350 907-634 1422-780 699-199 1415-192 2120 21 246 74 626 247 848 386 488 305 888 705 1198 1198 100 158 260 484 325 660 310 841 309 1746-4 2592-62 169-236 516-336 673-284 443-634 803-1060 1092-151 103-279 175-472 268-364 176-724 283-1131 336-143 19-587 33-705 23zm438-875c691-50 1317-335 1801-820 672-671 958-1622 771-2559-151-758-609-1420-1269-1836-660-417-1492-539-2252-330-852 234-1551 860-1877 1682-315 790-251 1712 169 2442 426 740 1148 1247 1979 1388 244 41 441 51 678 33z"/>
<path d="m4327 4191c-577-567-1052-1031-1056-1031s-221 220-482 489l-474 490-80-77c-44-42-185-179-313-303l-233-226 782-806c547-564 786-804 796-799 7 5 156 150 331 323 286 284 637 630 1957 1928 231 227 421 416 422 419 1 4-134 146-300 316l-302 309-1048-1032z"/>
</g>
</g>
</svg>
